<svg id="Factor_logo_black" data-name="Factor logo black" xmlns="http://www.w3.org/2000/svg" xmlns:xlink="http://www.w3.org/1999/xlink" width="603.261" height="120.389" viewBox="0 0 603.261 120.389">
  <defs>
    <clipPath id="clip-path">
      <rect id="Rectangle_26" data-name="Rectangle 26" width="603.261" height="120.389" transform="translate(0 0)" fill="none"/>
    </clipPath>
  </defs>
  <g id="Group_2" data-name="Group 2" clip-path="url(#clip-path)">
    <path id="Path_9" data-name="Path 9" d="M206.247,16.75l-3.53,16.01a1,1,0,0,1-.97.78H164.1V51.39h27.87a1,1,0,0,1,.97,1.24l-4.13,16.01a.994.994,0,0,1-.96.74H164.1v33.45a1.152,1.152,0,0,1-1.15,1.16h-20.06a.986.986,0,0,1-.99-.99V16.71a1.161,1.161,0,0,1,1.16-1.16h62.23a.982.982,0,0,1,.96,1.2"/>
    <path id="Path_10" data-name="Path 10" d="M249.708,15.427H227.419a.992.992,0,0,0-.935.661L195.8,102.667a.992.992,0,0,0,.935,1.324h18.844a.992.992,0,0,0,.942-.681l5.232-15.82h31.631l5.106,15.813a.993.993,0,0,0,.944.688h20.581a.992.992,0,0,0,.936-1.32L250.644,16.092a.992.992,0,0,0-.936-.665M227.1,70.127l10.289-32h.377l10.17,32Z"/>
    <path id="Path_11" data-name="Path 11" d="M355.822,47.307a.992.992,0,0,0,.992-.992V43.209c0-20.469-18.733-29.15-35.848-29.15-19.606,0-37.217,10.8-37.217,32.5V73.6c0,22.076,18.237,31.879,37.713,31.879,17.116,0,35.352-8.681,35.352-29.021V73.1a.992.992,0,0,0-.992-.992H336.96a.992.992,0,0,0-.992.992v1.121c0,9.178-7.56,13.147-14.387,13.147-9.049,0-15.627-5.209-15.627-14.268V46.315c0-10.051,7.571-14.139,15.379-14.139,6.827,0,14.635,3.84,14.635,13.147v.992a.992.992,0,0,0,.992.992Z"/>
    <path id="Path_12" data-name="Path 12" d="M434.677,16.54V32.29a.994.994,0,0,1-.99,1h-24.06V103a.986.986,0,0,1-.99.99h-20.22a.986.986,0,0,1-.99-.99V33.29h-24.07a1,1,0,0,1-1-1V16.54a.994.994,0,0,1,1-.99h70.33a.986.986,0,0,1,.99.99"/>
    <path id="Path_13" data-name="Path 13" d="M477.692,14.059c-18.981,0-37.336,11.043-37.336,33.5V73.1c0,22.82,17.988,32.375,37.832,32.375,18.485,0,37.465-10.418,37.465-33.486V47.426c0-22.821-18.236-33.367-37.961-33.367m15.756,58.678c0,10.041-7.441,14.506-15.26,14.506-9.049,0-15.627-5.209-15.627-14.635V46.682c0-10.289,7.322-14.506,15.26-14.506,8.3,0,15.627,5.08,15.627,14.387Z"/>
    <path id="Path_14" data-name="Path 14" d="M583.778,69.513c11.411-4.723,16.62-15.26,16.62-26.056,0-16.371-11.53-27.91-31.631-27.91h-37.7a.992.992,0,0,0-.992.992V103a.992.992,0,0,0,.992.992h20.221a.992.992,0,0,0,.992-.992V72.737h10.041l17.209,30.747a.991.991,0,0,0,.865.507h21.876a.992.992,0,0,0,.856-1.494ZM565.919,56.356H552.276V32.92h13.643c7.938,0,12.9,4.088,12.9,11.659,0,7.193-4.842,11.777-12.9,11.777"/>
    <g id="Component_4_1" data-name="Component 4 – 1" transform="translate(0 -0.001)">
      <path id="Path_15" data-name="Path 15" d="M8.259,0A8.278,8.278,0,0,0,0,8.279V43.591H65.846l.021,11.524H0v65.274H11.719a10.326,10.326,0,0,0,8.02-3.817L57.08,70.653H74.164a8.258,8.258,0,0,0,8.279-8.238.281.281,0,0,0,0-.041l-.029-23.06,15.653-19.29a10.282,10.282,0,0,0,2.316-6.51V0ZM16.547,94.27V70.656h19.2ZM70.424,28.044H16.547v-12.5H80.562Z" transform="translate(0 0.001)" fill="#231f20"/>
    </g>
  </g>
</svg>
