<?xml version="1.0" encoding="utf-8"?>
<!-- Generator: Adobe Illustrator 23.0.3, SVG Export Plug-In . SVG Version: 6.00 Build 0)  -->
<svg version="1.1" id="Layer_1" xmlns="http://www.w3.org/2000/svg" xmlns:xlink="http://www.w3.org/1999/xlink" x="0px" y="0px"
	 viewBox="0 0 960 237.5" style="enable-background:new 0 0 960 237.5;" xml:space="preserve">
<style type="text/css">
	.st0{fill:#D1344F;}
	.st1{fill:#003C5C;}
</style>
<g>
	<path class="st0" d="M58.3,66.7c0,5.6-4.5,10.2-10.1,10.2c-5.7,0-10.2-4.6-10.2-10.4c0-5.5,4.6-10.1,10.2-10.1S58.3,61,58.3,66.7z
		 M56.6,148.2c0,4.3-0.4,4.8-4.8,4.8h-7.4c-4.3,0-4.8-0.4-4.8-4.8V97.1c0-4.3,0.4-4.8,4.8-4.8h7.4c4.3,0,4.8,0.4,4.8,4.8V148.2z"/>
	<path class="st0" d="M83.9,99.9c5.3-6.9,10.8-9.5,19-9.5c7.1,0,13.6,2.7,17.6,7.3c3.5,4.1,4.8,8.5,4.8,16.8v33.7
		c0,4.3-0.4,4.8-4.8,4.8h-7.4c-4.3,0-4.8-0.4-4.8-4.8v-28.8c0-5-0.4-7.7-1.7-9.8c-1.7-2.9-5.5-4.8-9.9-4.8
		c-8.7,0-12.9,5.3-12.9,16.8v26.6c0,4.3-0.4,4.8-4.8,4.8h-7.4c-4.3,0-4.8-0.4-4.8-4.8V97.1c0-4.3,0.4-4.8,4.8-4.8H79
		c4.3,0,4.8,0.4,4.8,4.8v2.8H83.9z"/>
	<path class="st0" d="M181.5,103.5c0,3.8-0.4,4.9-2,4.9c-0.4,0-1-0.1-1.7-0.4c-3.8-1.8-6.3-2.4-9.8-2.4c-10.4,0-17.8,7.1-17.8,17.1
		c0,9.8,7.4,16.9,17.5,16.9c3.4,0,7.1-0.8,9.9-2.1c0.7-0.4,1.4-0.6,1.8-0.6c1.4,0,2,1.3,2,4.8v5.6c0,3.1-0.1,3.4-1,4.2
		c-2.1,1.7-9.4,3.4-14.6,3.4c-18.8,0-33.2-13.9-33.2-31.9c0-18.5,14.4-32.6,33.3-32.6c5.6,0,12.5,1.7,14.4,3.4c0.8,0.7,1,1.1,1,4.1
		v5.6H181.5z"/>
	<path class="st0" d="M253.5,122.6c0,19.2-14.3,32.3-35,32.3c-20.3,0-34.3-13.3-34.3-32.8c0-18.5,14.6-31.8,34.9-31.8
		S253.5,103.5,253.5,122.6z M201.7,122.9c0,9.1,7.8,16.8,17.2,16.8s17.1-7.6,17.1-16.9s-7.7-17.1-17.1-17.1
		C209.2,105.6,201.7,113.2,201.7,122.9z"/>
	<path class="st0" d="M277.8,101.6c4.3-7.7,9.9-11.2,17.8-11.2c4.3,0,6.9,1.3,6.9,3.5c0,0.4-0.1,1.8-0.3,2.4l-0.8,6
		c-0.6,3.4-1.3,4.3-2.9,4.3c-0.4,0-0.8,0-1.3-0.1c-2.2-0.6-4.3-0.8-5.6-0.8c-3.6,0-7.4,1.7-9.9,4.5c-2.7,2.9-3.8,6.9-3.8,13.7v24.4
		c0,4.3-0.4,4.8-4.8,4.8h-7.4c-4.3,0-4.8-0.4-4.8-4.8V97.1c0-4.3,0.4-4.8,4.8-4.8h7.4c4.3,0,4.8,0.4,4.8,4.8v4.5H277.8z"/>
	<path class="st0" d="M323.1,100.2c5.5-6.9,11.5-9.8,19.9-9.8c17.1,0,29.8,13.9,29.8,32.3c0,18.2-12.9,32.2-29.5,32.2
		c-8.1,0-14.1-2.9-20.2-9.8v35.4c0,4.3-0.4,4.8-4.8,4.8h-7.4c-4.3,0-4.8-0.4-4.8-4.8V97.1c0-4.3,0.4-4.8,4.8-4.8h7.4
		c4.3,0,4.8,0.4,4.8,4.8L323.1,100.2L323.1,100.2z M321.2,122.6c0,9.4,7.7,17.1,17.1,17.1s16.9-7.6,16.9-17.2
		c0-9.2-7.7-16.8-16.9-16.8C328.8,105.6,321.2,113.2,321.2,122.6z"/>
	<path class="st0" d="M446.3,122.6c0,19.2-14.3,32.3-35,32.3c-20.3,0-34.3-13.3-34.3-32.8c0-18.5,14.6-31.8,34.9-31.8
		C432.1,90.4,446.3,103.5,446.3,122.6z M394.5,122.9c0,9.1,7.8,16.8,17.2,16.8s17.1-7.6,17.1-16.9s-7.7-17.1-17.1-17.1
		C402,105.6,394.5,113.2,394.5,122.9z"/>
	<path class="st0" d="M470.6,101.6c4.3-7.7,9.9-11.2,17.8-11.2c4.3,0,6.9,1.3,6.9,3.5c0,0.4-0.1,1.8-0.3,2.4l-0.8,6
		c-0.6,3.4-1.3,4.3-2.9,4.3c-0.4,0-0.8,0-1.3-0.1c-2.2-0.6-4.3-0.8-5.6-0.8c-3.6,0-7.4,1.7-9.9,4.5c-2.7,2.9-3.8,6.9-3.8,13.7v24.4
		c0,4.3-0.4,4.8-4.8,4.8h-7.4c-4.3,0-4.8-0.4-4.8-4.8V97.1c0-4.3,0.4-4.8,4.8-4.8h7.4c4.3,0,4.8,0.4,4.8,4.8v4.5H470.6z"/>
	<path class="st0" d="M544,145.1c-5.5,6.9-11.5,9.8-19.9,9.8c-17.1,0-29.8-13.9-29.8-32.3c0-18.2,12.9-32.2,29.5-32.2
		c8.3,0,14.3,2.9,20.2,9.8v-3.1c0-4.3,0.4-4.8,4.8-4.8h7.3c4.5,0,4.9,0.4,4.9,4.8v51.1c0,4.3-0.4,4.8-4.9,4.8h-7.3
		c-4.3,0-4.8-0.4-4.8-4.8V145.1z M511.8,122.6c0,9.4,7.6,17.1,16.9,17.1c9.7,0,16.9-7.6,16.9-17.2c0-9.2-7.6-16.8-16.8-16.8
		C519.3,105.6,511.8,113.2,511.8,122.6z"/>
	<path class="st0" d="M590.6,148.2c0,4.3-0.4,4.8-4.8,4.8h-7.4c-4.3,0-4.8-0.4-4.8-4.8V107h-2c-4.3,0-4.8-0.4-4.8-4.9v-4.9
		c0-4.5,0.4-4.9,4.8-4.9h2V76.5c0-4.5,0.4-4.9,4.8-4.9h7.4c4.3,0,4.8,0.4,4.8,4.9v15.8h7.1c4.5,0,4.9,0.4,4.9,4.9v4.9
		c0,4.5-0.4,4.9-4.9,4.9h-7.1V148.2z"/>
	<path class="st0" d="M619.8,125.4c0.4,10.5,5.6,16.2,14.8,16.2c5.6,0,10.4-2.2,13-6.2c1-1.3,1.5-1.7,2.7-1.7c0.4,0,0.4,0,2.4,0.3
		l6.2,1c3.4,0.6,4.3,1.3,4.3,3.1c0,1.8-2.2,5.3-4.9,8c-6,5.9-13.9,8.8-23.4,8.8c-19.6,0-32.5-12.7-32.5-32.2
		c0-19.6,12.5-32.3,31.8-32.3c14.1,0,24.6,6.9,28.8,18.8c1.3,3.8,2.1,8.4,2.1,12.2c0,3.5-0.7,4.1-4.9,4.1h-40.4V125.4z M649.1,114.6
		c-1.8-7.8-6.9-12-14.4-12c-7.6,0-12.7,4.5-14.3,12H649.1z"/>
	<path class="st1" d="M693.3,143.7c0,6.2-4.9,11.1-10.9,11.1c-6.2,0-11.1-4.9-11.1-11.1c0-6,5-10.9,10.9-10.9
		C688.4,132.8,693.3,137.7,693.3,143.7z"/>
	<path class="st1" d="M747.8,103.5c0,3.8-0.4,4.9-2,4.9c-0.4,0-1-0.1-1.7-0.4c-3.8-1.8-6.3-2.4-9.8-2.4c-10.4,0-17.8,7.1-17.8,17.1
		c0,9.8,7.4,16.9,17.5,16.9c3.4,0,7.1-0.8,9.9-2.1c0.7-0.4,1.4-0.6,1.8-0.6c1.4,0,2,1.3,2,4.8v5.6c0,3.1-0.1,3.4-1,4.2
		c-2.1,1.7-9.4,3.4-14.6,3.4c-18.8,0-33.2-13.9-33.2-31.9c0-18.5,14.4-32.6,33.3-32.6c5.6,0,12.5,1.7,14.4,3.4c0.8,0.7,1,1.1,1,4.1
		v5.6H747.8z"/>
	<path class="st1" d="M819.8,122.6c0,19.2-14.3,32.3-35,32.3c-20.3,0-34.3-13.3-34.3-32.8c0-18.5,14.6-31.8,34.9-31.8
		S819.8,103.5,819.8,122.6z M768,122.9c0,9.1,7.8,16.8,17.2,16.8s17.1-7.6,17.1-16.9s-7.7-17.1-17.1-17.1
		C775.5,105.6,768,113.2,768,122.9z"/>
	<path class="st1" d="M844.1,99.3c5.6-6.4,11.1-9,18.5-9c8.4,0,14.3,3.4,18.9,11.1c4.8-7.4,11.3-11.1,19.9-11.1
		c7.3,0,13.7,3.4,16.9,8.7c2.2,3.6,3.2,8,3.2,14.7v34.4c0,4.3-0.4,4.8-4.8,4.8h-7.4c-4.3,0-4.8-0.4-4.8-4.8v-28.3
		c0-4.9-0.3-7.1-1.4-9.7c-1.5-3.4-4.6-5.3-8.5-5.3c-4.3,0-8.1,2.2-9.9,6c-1.3,2.7-1.8,5.7-1.8,11.1v26.3c0,4.3-0.4,4.8-4.8,4.8h-7.4
		c-4.3,0-4.8-0.4-4.8-4.8v-27.4c0-5.2-0.3-7.8-1.3-10.1c-1.4-3.5-5.2-5.9-9.1-5.9c-3.8,0-7.8,2.2-9.5,5.5c-1.4,2.5-2,5.7-2,11.6
		v26.3c0,4.3-0.4,4.8-4.8,4.8h-7.4c-4.3,0-4.8-0.4-4.8-4.8V97.1c0-4.3,0.4-4.8,4.8-4.8h7.4c4.3,0,4.8,0.4,4.8,4.8L844.1,99.3
		L844.1,99.3z"/>
</g>
</svg>
