<svg width="76" height="33" viewBox="0 0 76 33" fill="none" xmlns="http://www.w3.org/2000/svg">
<path d="M10.1054 32.9493C8.19624 32.9493 6.48357 32.6169 4.96744 31.9521C3.45131 31.2596 2.24402 30.3317 1.34557 29.1683C0.648404 28.2364 0.203432 27.2245 0.0106521 26.1327C-0.0680998 25.6867 0.300621 25.3041 0.75951 25.3041H5.14779C5.55001 25.3041 5.87793 25.6049 6.0102 25.9796C6.21875 26.5705 6.60116 27.0794 7.15741 27.5062C7.94355 28.0879 8.91219 28.3788 10.0633 28.3788C11.1864 28.3788 12.0568 28.1572 12.6744 27.714C13.3202 27.2708 13.6431 26.7029 13.6431 26.0104C13.6431 25.2625 13.25 24.7085 12.4639 24.3484C11.7058 23.9606 10.4845 23.5451 8.79988 23.1019C7.05914 22.6864 5.62724 22.2571 4.50418 21.8139C3.40919 21.3707 2.45459 20.692 1.64037 19.7779C0.854229 18.8638 0.461158 17.6311 0.461158 16.0799C0.461158 14.8057 0.826152 13.6423 1.55614 12.5897C2.31421 11.5371 3.38112 10.7061 4.75687 10.0967C6.16069 9.4873 7.80317 9.1826 9.6843 9.1826C12.4639 9.1826 14.6819 9.8751 16.3384 11.2601C17.7905 12.4499 18.6708 14.0121 18.9795 15.9468C19.0515 16.3979 18.6822 16.7863 18.2193 16.7863H14.1608C13.7484 16.7863 13.4163 16.4708 13.2948 16.0819C13.111 15.4939 12.7639 15.0085 12.2533 14.6257C11.5795 14.0717 10.667 13.7947 9.51584 13.7947C8.44893 13.7947 7.62067 13.9886 7.03106 14.3764C6.46953 14.7642 6.18877 15.3043 6.18877 15.9968C6.18877 16.7724 6.58184 17.368 7.36798 17.7835C8.15412 18.1713 9.37545 18.5729 11.032 18.9885C12.7166 19.404 14.1063 19.8333 15.2013 20.2765C16.2963 20.7197 17.2369 21.4122 18.023 22.354C18.8372 23.2681 19.2584 24.4869 19.2865 26.0104C19.2865 27.34 18.9074 28.5312 18.1494 29.5838C17.4194 30.6364 16.3525 31.4674 14.9486 32.0768C13.5729 32.6585 11.9585 32.9493 10.1054 32.9493Z" fill="black"/>
<path d="M50.4228 6.81424C49.384 6.81424 48.5136 6.49569 47.8117 5.85858C47.1379 5.19378 46.801 4.37662 46.801 3.40712C46.801 2.43761 47.1379 1.63431 47.8117 0.997206C48.5136 0.332402 49.384 0 50.4228 0C51.4617 0 52.318 0.332402 52.9918 0.997206C53.6938 1.63431 54.0447 2.43761 54.0447 3.40712C54.0447 4.37662 53.6938 5.19378 52.9918 5.85858C52.318 6.49569 51.4617 6.81424 50.4228 6.81424ZM52.5312 9.55655C52.9717 9.55655 53.3288 9.90884 53.3288 10.3434V31.7885C53.3288 32.2231 52.9717 32.5754 52.5312 32.5754H48.2302C47.7898 32.5754 47.4327 32.2231 47.4327 31.7885V10.3434C47.4327 9.90884 47.7898 9.55655 48.2302 9.55655H52.5312Z" fill="black"/>
<path d="M66.819 32.9493C64.9098 32.9493 63.1971 32.6169 61.681 31.9521C60.1648 31.2596 58.9576 30.3317 58.0591 29.1683C57.3619 28.2364 56.917 27.2245 56.7242 26.1327C56.6454 25.6867 57.0141 25.3041 57.473 25.3041H61.8613C62.2635 25.3041 62.5915 25.6049 62.7237 25.9796C62.9323 26.5705 63.3147 27.0794 63.8709 27.5062C64.6571 28.0879 65.6257 28.3788 66.7769 28.3788C67.8999 28.3788 68.7703 28.1572 69.388 27.714C70.0337 27.2708 70.3566 26.7029 70.3566 26.0104C70.3566 25.2625 69.9635 24.7085 69.1774 24.3484C68.4193 23.9606 67.198 23.5451 65.5134 23.1019C63.7727 22.6864 62.3408 22.2571 61.2177 21.8139C60.1227 21.3707 59.1681 20.692 58.3539 19.7779C57.5678 18.8638 57.1747 17.6311 57.1747 16.0799C57.1747 14.8057 57.5397 13.6423 58.2697 12.5897C59.0277 11.5371 60.0947 10.7061 61.4704 10.0967C62.8742 9.4873 64.5167 9.1826 66.3978 9.1826C69.1774 9.1826 71.3955 9.8751 73.052 11.2601C74.504 12.4499 75.3844 14.0121 75.693 15.9468C75.765 16.3979 75.3957 16.7863 74.9329 16.7863H70.8744C70.4619 16.7863 70.1298 16.4708 70.0083 16.0819C69.8246 15.4939 69.4774 15.0085 68.9668 14.6257C68.293 14.0717 67.3805 13.7947 66.2294 13.7947C65.1625 13.7947 64.3342 13.9886 63.7446 14.3764C63.1831 14.7642 62.9023 15.3043 62.9023 15.9968C62.9023 16.7724 63.2954 17.368 64.0815 17.7835C64.8677 18.1713 66.089 18.5729 67.7455 18.9885C69.4301 19.404 70.8199 19.8333 71.9149 20.2765C73.0098 20.7197 73.9504 21.4122 74.7366 22.354C75.5508 23.2681 75.9719 24.4869 76 26.0104C76 27.34 75.621 28.5312 74.8629 29.5838C74.1329 30.6364 73.066 31.4674 71.6622 32.0768C70.2864 32.6585 68.672 32.9493 66.819 32.9493Z" fill="black"/>
<path d="M43.5505 17.0546C43.7279 17.5932 43.8684 18.1031 43.972 18.5842C44.053 18.9605 43.8213 19.327 43.4505 19.4458L28.6957 24.1757C28.252 24.3179 28.0221 24.8071 28.2475 25.2102C28.8775 26.3368 29.7206 27.1385 30.7769 27.6152C32.0599 28.1942 33.4224 28.2526 34.8643 27.7904C36.7792 27.1765 37.9406 25.9795 38.3484 24.1993C38.4154 23.9069 38.6213 23.6589 38.9102 23.5663L43.4669 22.1056C43.975 21.9427 44.499 22.3099 44.4605 22.8357C44.3206 24.745 43.6735 26.5252 42.5193 28.1762C41.146 30.1019 39.1376 31.4884 36.4941 32.3358C34.3579 33.0206 32.2835 33.1759 30.2709 32.8016C28.2763 32.3925 26.5164 31.4858 24.9912 30.0816C23.4926 28.6688 22.3746 26.8428 21.6372 24.6035C20.891 22.3379 20.7033 20.1991 21.0739 18.1871C21.4445 16.1751 22.3191 14.4385 23.6977 12.9771C25.0763 11.5158 26.8604 10.4342 29.05 9.7323C31.1595 9.05607 33.1895 8.90046 35.14 9.26546C37.1173 9.6219 38.8331 10.4845 40.2876 11.8531C41.7601 13.1869 42.8477 14.9207 43.5505 17.0546ZM36.4495 17.5834C36.8739 17.4473 37.1088 16.9902 36.9068 16.5976C36.383 15.5799 35.5943 14.8601 34.5409 14.438C33.2399 13.8939 31.855 13.8573 30.3864 14.3281C28.9979 14.7732 27.9618 15.5713 27.2782 16.7225C26.7457 17.6155 26.5133 18.6452 26.581 19.8118C26.6088 20.2898 27.1011 20.5802 27.5627 20.4322L36.4495 17.5834Z" fill="black"/>
</svg>
